<svg width="139" height="150" viewBox="0 0 139 150" fill="none" xmlns="http://www.w3.org/2000/svg">
<path d="M32.7373 115.37C32.3398 112.231 31.8673 109.021 30.2061 106.201C28.5448 103.381 25.4511 100.978 21.7723 100.708" stroke="#1B8F57" stroke-width="2.625" stroke-linecap="round" stroke-linejoin="round"/>
<path d="M21.2171 100.745C24.2058 101.499 26.3246 103.888 27.2359 106.438C28.1471 108.984 28.0533 111.706 27.9408 114.369" stroke="#1B8F57" stroke-width="2.625" stroke-linecap="round" stroke-linejoin="round"/>
<path d="M17.4785 100.651C15.4498 102.29 14.3548 104.626 13.9235 106.981C13.4923 109.336 13.6722 111.74 13.856 114.118" stroke="#1B8F57" stroke-width="2.625" stroke-linecap="round" stroke-linejoin="round"/>
<path d="M17.8945 99.9238C14.677 100.685 12.2846 103.111 11.0958 105.778C9.90708 108.444 9.74956 111.354 9.67456 114.208" stroke="#1B8F57" stroke-width="2.625" stroke-linecap="round" stroke-linejoin="round"/>
<path d="M30.5924 116.413C32.7861 115.94 34.9799 115.464 37.1737 114.988C38.4412 119.544 38.7824 124.423 38.2424 129.121C34.8374 129.695 31.3311 130.254 27.9261 130.828" fill="#E8F1F1"/>
<path d="M30.5924 116.413C32.7861 115.94 34.9799 115.464 37.1737 114.988C38.4412 119.544 38.7824 124.423 38.2424 129.121C34.8374 129.695 31.3311 130.254 27.9261 130.828" stroke="#E8F1F1" stroke-width="2.625" stroke-linecap="round" stroke-linejoin="round"/>
<path d="M35.04 81.7326C30.9375 80.2213 26.7901 78.6989 22.4514 78.1551C21.1239 77.9864 19.6988 77.9301 18.5363 78.5901C17.0738 79.4188 16.4025 81.1663 16.1025 82.8201C15.1088 88.3138 16.9988 93.8713 18.8663 99.1326C20.3401 98.8438 21.8026 99.3088 23.1751 99.9238" stroke="#1B8F57" stroke-width="2.625" stroke-linecap="round" stroke-linejoin="round"/>
<path d="M22.2637 102.744C22.1737 103.153 21.8774 103.513 21.4911 103.678C21.1049 103.843 20.6399 103.805 20.2837 103.588C19.7774 103.276 19.5374 102.669 19.4061 102.088C19.2036 101.203 19.1736 100.284 19.3049 99.3839C18.7086 100.063 18.0899 100.843 17.9437 101.731C17.8349 102.395 17.8798 103.119 18.2511 103.678C18.6223 104.236 19.3874 104.563 19.9987 104.285C20.6587 103.985 20.8799 103.175 21.0262 102.466" stroke="#1B8F57" stroke-width="2.625" stroke-linecap="round" stroke-linejoin="round"/>
<path d="M18.3555 99.3952C18.0667 99.3127 17.748 99.4252 17.5155 99.6202C17.283 99.8114 17.1217 100.074 16.9717 100.336C16.5817 101.023 16.2368 101.78 16.2743 102.571C16.3118 103.359 16.8442 104.176 17.628 104.289" stroke="#1B8F57" stroke-width="2.625" stroke-linecap="round" stroke-linejoin="round"/>
<path d="M24.5627 115.737C26.794 115.651 29.0328 115.677 31.264 115.82C31.4703 121.4 31.3427 127.085 30.9677 132.657C25.4515 132.706 19.8452 132.759 14.3289 132.811C14.3289 131.634 14.3289 130.385 14.3289 129.207" fill="#FF93C9"/>
<path d="M24.5627 115.737C26.794 115.651 29.0328 115.677 31.264 115.82C31.4703 121.4 31.3427 127.085 30.9677 132.657C25.4515 132.706 19.8452 132.759 14.3289 132.811C14.3289 131.634 14.3289 130.385 14.3289 129.207" stroke="#FF93C9" stroke-width="2.625" stroke-linecap="round" stroke-linejoin="round"/>
<path d="M25.1662 114.957C25.1812 119.457 24.9824 123.961 24.5774 128.442C18.9824 128.971 13.3012 128.787 7.72495 128.06C7.76245 123.661 7.79988 119.259 7.84113 114.86C13.7061 115.025 19.3012 114.789 25.1662 114.957Z" fill="#CAE0D2" stroke="#CAE0D2" stroke-width="2.625" stroke-linecap="round" stroke-linejoin="round"/>
<path d="M90.2248 93.6156C92.7973 86.0406 96.7122 78.9194 101.733 72.6906C103.395 70.6319 105.247 68.6106 107.659 67.5231C110.07 66.4318 113.167 66.4768 115.114 68.2731C116.629 69.6718 117.176 71.8206 117.446 73.8606C118.204 79.5944 117.288 85.5381 114.847 90.7806C114.18 90.5181 113.43 90.7206 112.86 91.1594C112.29 91.5944 111.971 92.3444 112.057 93.0606" stroke="#1B8F57" stroke-width="2.625" stroke-linecap="round" stroke-linejoin="round"/>
<path d="M115.121 91.2943C115.256 92.1868 115.391 93.1206 115.117 93.9831C114.844 94.8456 114.034 95.6106 113.134 95.5131" stroke="#1B8F57" stroke-width="2.625" stroke-linecap="round" stroke-linejoin="round"/>
<path d="M115.542 91.0806C116.505 91.5156 117.192 92.5056 117.263 93.5631C117.33 94.6168 116.779 95.6931 115.879 96.2481" stroke="#1B8F57" stroke-width="2.625" stroke-linecap="round" stroke-linejoin="round"/>
<path d="M115.542 91.0806C116.599 91.0843 117.634 91.7068 118.125 92.6443C118.62 93.5781 118.553 94.7856 117.957 95.6593" stroke="#1B8F57" stroke-width="2.625" stroke-linecap="round" stroke-linejoin="round"/>
<path d="M126.225 123.657C126.371 126.901 126.308 130.152 126.038 133.388C118.039 133.617 109.947 133.257 101.993 132.361C102.105 129.728 102.192 127.141 101.899 124.523" fill="#FF93C9"/>
<path d="M126.225 123.657C126.371 126.901 126.308 130.152 126.038 133.388C118.039 133.617 109.947 133.257 101.993 132.361C102.105 129.728 102.192 127.141 101.899 124.523" stroke="#FF93C9" stroke-width="2.625" stroke-linecap="round" stroke-linejoin="round"/>
<path d="M125.865 108.188C125.441 105.413 124.009 102.856 122.599 100.358C121.654 98.6819 120.679 96.9719 119.179 95.6669C117.675 94.3581 115.523 93.5069 113.486 93.9306C111.956 94.2531 110.7 95.2356 109.714 96.3344C106.301 100.137 105.551 105.274 104.929 110.127" stroke="#1B8F57" stroke-width="2.625" stroke-linecap="round" stroke-linejoin="round"/>
<path d="M120.477 107.611C120.267 103.778 119.217 100.002 117.593 96.4543C117.064 95.2993 116.423 94.1143 115.29 93.3943C113.779 92.4343 111.66 92.5393 110.01 93.2931C108.36 94.0468 107.112 95.3518 106.05 96.7168C102.84 100.857 101.033 105.859 100.924 110.907" stroke="#1B8F57" stroke-width="2.625" stroke-linecap="round" stroke-linejoin="round"/>
<path d="M108.533 108.668C104.232 108.477 99.9157 108.578 95.6257 108.976C95.502 114.694 95.9032 119.686 96.4282 125.378C100.399 125.468 108.233 125.048 108.233 125.048" fill="#E8F1F1"/>
<path d="M108.533 108.668C104.232 108.477 99.9157 108.578 95.6257 108.976C95.502 114.694 95.9032 119.686 96.4282 125.378C100.399 125.468 108.233 125.048 108.233 125.048" stroke="#E8F1F1" stroke-width="2.625" stroke-linecap="round" stroke-linejoin="round"/>
<path d="M107.288 107.963C115.238 107.547 123.203 107.408 131.164 107.547C131.201 113.873 131.239 120.319 131.276 126.642C123.124 126.709 114.953 126.747 106.804 126.818C106.883 120.687 107.213 114.094 107.288 107.963Z" fill="#CAE0D2" stroke="#CAE0D2" stroke-width="2.625" stroke-linecap="round" stroke-linejoin="round"/>
<path d="M72.8284 79.4696C71.5647 95.7708 64.3496 127.717 64.3496 127.717C65.1409 127.563 66.0409 128.257 66.8396 128.388M68.3546 75.0446C64.4134 93.6558 58.9309 111.99 51.9746 129.84C52.6159 130.29 53.4334 131.103 54.0709 131.553" stroke="#1B8F57" stroke-width="2.625" stroke-linecap="round" stroke-linejoin="round"/>
<path d="M69.2239 18.1112L97.6789 46.2774C98.3689 46.9599 98.8602 47.8149 99.1077 48.7487L109.27 87.4749C110.024 90.3474 108.325 93.2874 105.464 94.0711L66.8426 104.631C65.9089 104.886 64.9226 104.886 63.9851 104.631L25.3639 94.0711C22.5026 93.2874 20.8039 90.3474 21.5576 87.4749L31.7201 48.7487C31.9676 47.8112 32.4589 46.9561 33.1489 46.2774L61.6039 18.1112C63.7152 16.0224 67.1089 16.0224 69.2201 18.1112H69.2239Z" fill="#CAE0D2"/>
<path d="M69.2546 33.7946C67.1809 38.2946 64.0384 42.2958 60.1571 45.3783C58.9684 46.3233 57.6859 47.1933 56.2421 47.6658C54.7984 48.1421 53.1634 48.187 51.7984 47.5195C50.4334 46.852 49.4171 45.3896 49.5296 43.8746C49.6384 42.4008 50.7296 41.1783 51.9371 40.3308C52.7921 39.7308 53.8646 39.2396 54.8546 39.5621C55.7396 39.8508 56.3284 40.7396 56.4859 41.6583C56.6434 42.5733 56.4446 43.5146 56.1746 44.4071C55.7134 45.9371 55.0234 47.4371 53.9096 48.5846C52.7959 49.7321 51.2134 50.497 49.6196 50.3545C48.0259 50.212 46.5034 49.0308 46.2259 47.4558C46.0459 48.7083 45.4646 49.912 44.5196 50.7558C43.5746 51.6033 42.3296 52.1021 41.0621 52.1471C40.4021 52.1696 39.6934 52.0496 39.2246 51.5846" stroke="#1B8F57" stroke-width="2.625" stroke-linecap="round" stroke-linejoin="round"/>
<path d="M60.0371 53.1858C60.4309 52.1996 61.1359 51.3408 62.0321 50.7671" stroke="#1B8F57" stroke-width="2.625" stroke-linecap="round" stroke-linejoin="round"/>
<path d="M69.2549 43.9645C70.2861 43.7395 71.3999 43.9083 72.3149 44.4295" stroke="#1B8F57" stroke-width="2.625" stroke-linecap="round" stroke-linejoin="round"/>
<path d="M63.8174 60.6408V60.2208" stroke="#1B8F57" stroke-width="2.625" stroke-linecap="round" stroke-linejoin="round"/>
<path d="M69.4277 60.1346V59.7146" stroke="#1B8F57" stroke-width="2.625" stroke-linecap="round" stroke-linejoin="round"/>
<path d="M65.9814 71.0621C68.4339 71.1858 70.8414 69.7983 71.1039 68.1108" stroke="#1B8F57" stroke-width="2.625" stroke-linecap="round" stroke-linejoin="round"/>
</svg>
