<svg width="170" height="170" viewBox="0 0 170 170" fill="none" xmlns="http://www.w3.org/2000/svg">
<g clip-path="url(#clip0_1367_7082)">
<circle cx="85.1401" cy="85" r="85" fill="#1B1816"/>
<path d="M35.1622 71.6463L34.2833 75.0135L14.7276 75.2416L15.4065 72.6408L32.0088 72.609L17.5342 64.4899L18.2131 61.889L35.1622 71.6463ZM20.5142 55.9152L25.8123 46.504L27.7363 47.5872L23.6627 54.8233L28.7657 57.696L32.2506 51.5056L34.1747 52.5887L30.6898 58.7792L36.1274 61.8403L40.201 54.6041L42.125 55.6873L36.827 65.0985L20.5142 55.9152ZM19.761 48.9363L21.0207 46.6985L22.5795 49.3111L21.3786 51.4443L19.761 48.9363ZM39.686 47.0881L44.9591 52.1305L43.2341 53.9345L29.7043 40.9968L33.5359 36.9899C35.4765 34.9605 38.3591 33.3003 41.6374 36.4352L41.9844 36.767C44.1526 38.8403 44.214 40.825 43.4707 42.5052L51.2124 45.5911L49.338 47.5512L42.1077 44.5557L39.686 47.0881ZM38.1075 45.5788L40.2638 43.3238C41.259 42.283 42.2209 40.5131 40.1741 38.5559L39.9486 38.3402C37.9018 36.383 36.1767 37.4231 35.1815 38.4639L33.0252 40.7188L38.1075 45.5788ZM44.6011 26.8276L55.4238 42.102L53.3872 43.5451L42.5646 28.2706L44.6011 26.8276ZM50.4877 23.1954L60.0367 18.7429L60.9698 20.7441L53.683 24.1417L56.1577 29.4491L62.3569 26.5586L63.29 28.5597L57.0908 31.4503L60.6609 39.1069L58.3987 40.1617L50.4877 23.1954ZM67.8578 16.0968L72.6051 34.2048L70.1907 34.8378L65.4434 16.7298L67.8578 16.0968ZM74.6859 14.7753L85.4578 13.9975L85.6169 16.1998L77.3344 16.7978L77.7561 22.6386L84.8417 22.127L85.0007 24.3293L77.9151 24.8409L78.3645 31.0647L86.6469 30.4667L86.8059 32.6689L76.034 33.4467L74.6859 14.7753ZM92.6307 25.8896L91.3342 33.0694L88.8779 32.6259L92.2045 14.2038L97.6603 15.189C100.424 15.688 103.398 17.1764 102.592 21.6402L102.507 22.1125C101.974 25.0648 100.352 26.2109 98.5411 26.5179L100.238 34.6773L97.5693 34.1954L96.0789 26.5122L92.6307 25.8896ZM93.0188 23.7403L96.0891 24.2948C97.5062 24.5507 99.5131 24.3765 100.016 21.5896L100.072 21.2826C100.575 18.4956 98.7558 17.6306 97.3388 17.3747L94.2684 16.8203L93.0188 23.7403ZM127.149 33.0589L115.235 42.379L113.222 41.0289L117.322 26.4691L115.169 29.8514L109.395 38.4625L107.322 37.0724L117.748 21.5245L120.758 23.5429L116.625 38.1093L128.551 28.7692L131.561 30.7876L121.135 46.3355L119.062 44.9454L124.837 36.3342L127.149 33.0589ZM126.487 52.6367C123.697 49.0905 124.46 45.712 129.553 41.7056L130.307 41.112C135.4 37.1056 138.863 37.1601 141.653 40.7064C144.428 44.2337 143.665 47.6122 138.572 51.6187L137.818 52.2122C132.725 56.2187 129.262 56.1641 126.487 52.6367ZM128.163 51.1961L128.267 51.3282C130.047 53.5917 132.495 53.132 136.23 50.1939L136.985 49.6003C140.719 46.6623 141.743 44.3917 139.962 42.1281L139.858 41.9961C138.077 39.7325 135.63 40.1923 131.895 43.1304L131.14 43.7239C127.405 46.662 126.382 48.9326 128.163 51.1961ZM154.294 63.9776L137.033 71.2241L136.002 68.7678L146.153 55.9945L142.362 57.6903L133.001 61.6201L132.081 59.4294L149.342 52.1829L150.373 54.6392L140.222 67.4124L144.014 65.7166L153.374 61.7868L154.294 63.9776Z" fill="white"/>
<path d="M40.3014 113.296L46.9993 121.768L45.2672 123.138L40.1173 116.623L35.5234 120.255L39.9291 125.828L38.197 127.197L33.7913 121.624L28.8962 125.494L34.0462 132.009L32.3141 133.378L25.6162 124.906L40.3014 113.296ZM47.0444 115.247L48.637 117.261L45.6284 117.712L44.1102 115.792L47.0444 115.247ZM44.7545 144.374L36.8682 138.135L48.483 123.454L50.4405 125.002L40.1956 137.952L46.1245 142.642L44.7545 144.374ZM60.4977 132.21L51.5845 148.672L49.3896 147.483L58.3028 131.021L60.4977 132.21ZM64.3424 153.788C59.8155 152.424 58.385 149.185 60.2548 142.981L60.5318 142.062C62.4015 135.857 65.3831 133.949 69.6802 135.243C73.6556 136.441 75.0592 139.02 73.7851 143.248L73.5704 143.961L71.1576 143.234C72.1409 139.971 71.6857 138.154 69.2039 137.406L69.0201 137.351C66.1937 136.499 64.3387 138.246 62.9676 142.796L62.6906 143.715C61.3194 148.265 61.8543 150.732 64.9105 151.653L65.0944 151.709C66.611 152.166 67.8802 151.947 68.6738 151.559L69.8995 147.492L67.073 146.64L67.7101 144.526L72.9264 146.098L70.7174 153.428C69.2958 154.153 67.2837 154.674 64.3424 153.788ZM81.0926 138.285L79.4916 156.937L77.0048 156.723L78.6057 138.072L81.0926 138.285ZM84.5618 138.447L89.7901 137.908C92.822 137.595 95.6807 138.41 96.0672 142.159L96.1164 142.636C96.3182 144.594 95.4551 145.817 94.1106 146.583C95.8194 147.01 97.16 148.078 97.3914 150.322L97.4406 150.799C97.8418 154.691 95.1239 156.177 92.0443 156.495L86.4818 157.068L84.5618 138.447ZM91.2923 148.031L88.0932 148.361L88.7381 154.616L91.9372 154.286C93.6561 154.109 95.1266 153.161 94.9002 150.965L94.8706 150.678C94.6466 148.506 93.0112 147.854 91.2923 148.031ZM90.0643 140.099L87.2711 140.387L87.8668 146.165L90.66 145.877C92.355 145.702 93.7901 144.878 93.5784 142.825L93.544 142.491C93.3323 140.438 91.7593 139.925 90.0643 140.099ZM101.463 136.066L106.91 153.976L104.522 154.702L99.0748 136.792L101.463 136.066ZM122.312 147.015L113.349 151.574L104.86 134.889L107.085 133.758L114.572 148.475L121.31 145.047L122.312 147.015ZM117.807 127.636L129.083 142.579L127.091 144.082L115.815 129.139L117.807 127.636ZM126.276 122.471L138.39 133.692L136.694 135.523L124.58 124.302L121.449 127.683L119.829 126.182L127.788 117.59L129.408 119.09L126.276 122.471ZM128.981 116.12L134.381 106.767L136.293 107.871L132.141 115.062L137.212 117.991L140.765 111.839L142.677 112.943L139.125 119.095L144.528 122.215L148.681 115.024L150.593 116.128L145.192 125.481L128.981 116.12ZM128.304 109.133L129.588 106.909L131.118 109.539L129.894 111.659L128.304 109.133Z" fill="white"/>
</g>
<defs>
<clipPath id="clip0_1367_7082">
<rect width="170" height="170" fill="white"/>
</clipPath>
</defs>
</svg>
